<svg id="Layer_1" data-name="Layer 1" xmlns="http://www.w3.org/2000/svg" xmlns:xlink="http://www.w3.org/1999/xlink" viewBox="0 0 512 512"><defs><style>.cls-1{fill:url(#linear-gradient);}.cls-2{fill:url(#linear-gradient-2);}.cls-3{fill:url(#linear-gradient-3);}.cls-4{fill:url(#linear-gradient-4);}</style><linearGradient id="linear-gradient" x1="79.48" y1="262.5" x2="419.04" y2="272.49" gradientUnits="userSpaceOnUse"><stop offset="0" stop-color="#ee6f31"/><stop offset="1" stop-color="#f9a42e"/></linearGradient><linearGradient id="linear-gradient-2" x1="80.79" y1="217.83" x2="420.35" y2="227.82" xlink:href="#linear-gradient"/><linearGradient id="linear-gradient-3" x1="80.07" y1="242.4" x2="419.63" y2="252.38" xlink:href="#linear-gradient"/><linearGradient id="linear-gradient-4" x1="78.53" y1="294.8" x2="418.09" y2="304.78" xlink:href="#linear-gradient"/></defs><title>ZainStore.pk</title><path class="cls-1" d="M184.19,346.92h3.65l235.34.05c3.67,0,3.64,0,2.43,3.57-1.67,4.95-3.15,10-5.81,14.53-4.38,7.51-10.71,11.87-19.66,11.86-7.74,0-15.49,0-23.24,0-2.44,0-3.74,0-2.15,3.13,7.45,14.73-.89,30.11-13.34,35a25.76,25.76,0,0,1-34.25-16.63c-1.85-6.23-1-12.3,1.78-18.13,1.56-3.27,1.55-3.31-2-3.31-27.06,0-54.11,0-81.17-.06-3.07,0-2.78.81-1.72,3.09,6.78,14.65.12,30.5-14.93,35.43-10.16,3.33-19.25,1.1-26.66-6.59a25.09,25.09,0,0,1-4.5-28c1.86-4.08,1.86-4.07-2.81-4.07l-67.1-.05H123c44.19-56.64,87.9-112.67,132.13-169.38H239.51l-200,.21c-7.41,0-7.41,0-4.76-6.95,2.14-5.59,4.15-11.2,7.64-16.19A14.88,14.88,0,0,1,55.6,177.6c20.07.07,40.15,0,60.22,0h3.94c-2.85-7.4-5.53-14.37-8.24-21.32-1.42-3.66-3-7.26-4.31-10.94a2.82,2.82,0,0,0-3.13-2.13c-19.63.09-39.27.08-58.9.21-4.63,0-4.63.21-4.62-4.54,0-7.31.11-14.62,0-21.93,0-2.47.57-3.4,3.27-3.39q39.6.14,79.21,0c2.56,0,3.92.79,4.94,3.13,6.5,15,11.92,30.36,18.11,45.45,1.66,4,3.45,8,4.82,12.14.93,2.82,2.56,3.47,5.33,3.46q76.59-.16,153.18-.15c1.89,0,4.74-.93,5.45.57s-1.81,3.16-3,4.66c-8.28,10.62-16.86,21-25,31.77-16.12,21.34-32.88,42.17-49.28,63.29l-51.26,66C185.79,344.63,185.25,345.44,184.19,346.92Z"/><path class="cls-2" d="M230.2,324.11c44-56.42,87.58-112.27,131.23-168.23-1.3-1.17-2.54-.78-3.64-.78q-95.73,0-191.47,0c-4.52,0-4.67,0-3.2-4.16,2-5.57,3.18-11.4,7-16.28,4.5-5.76,9.94-9.11,17.35-9.09q30.45.07,60.88.07l168.56.06h2.29c1.65,0,2.13.29,1.07,2-3.68,6.09-8.31,11.46-12.64,17q-23.26,30-46.75,59.89-19.08,24.39-38.15,48.78c-10.27,13.21-20.42,26.5-30.62,39.77a6.26,6.26,0,0,0-.44.86c1,.87,2.1.49,3.12.49q56.46.09,112.91.16c2.67,0,3.89-.63,4.76-3.44,7.14-23.05,14.52-46,21.84-69,1.15-3.62,2.39-7.22,3.57-10.83,1.12-3.4.69-4-2.92-4l-52.7-.1c-.85,0-1.7-.11-2.94-.19,1.19-2.74,3.19-4.56,4.76-6.65,5.3-7,10.69-14,15.95-21a3.68,3.68,0,0,1,3.3-1.63q36.66,0,73.31,0c2.25,0,2.55.49,2,2.82-3.15,12.27-8.1,24-11.36,36.22-2.77,10.41-6.77,20.48-10,30.76q-11.56,36.45-22.85,73c-1,3.17-2.43,3.95-5.51,3.95q-89.19-.13-178.38-.1C244,324.53,237.6,324.73,230.2,324.11Z"/><path class="cls-3" d="M137.92,259.33q-26.65,0-53.31,0c-2,0-4.61,1.34-2.45-3.26,2.65-5.61,4.87-11.5,7.61-17.13,3.18-6.55,8.08-9.46,15.65-9.35,21.47.31,42.94,0,64.42,0q22.23-.06,44.46-.07c.95,0,2.26-.43,2.77.45.65,1.13-.67,1.86-1.28,2.65-6.37,8.28-12.8,16.51-19.13,24.82a4.94,4.94,0,0,1-4.46,2c-18.09-.06-36.19,0-54.28,0Z"/><path class="cls-4" d="M177.47,281.38c-5.69,7.47-10.89,14.3-16.11,21.11-1.76,2.29-3.73,4.44-5.34,6.83a4.25,4.25,0,0,1-4.07,1.92q-34.66-.08-69.34,0c-2.72,0-3.77-.22-2.33-3.3,2.49-5.32,4.34-10.93,6.78-16.27,3-6.61,8.08-10.22,15.62-10.28,21.25-.17,42.51-.26,63.76,0C169.79,281.42,173.15,281.38,177.47,281.38Z"/></svg>
